<svg width="48" height="63" viewBox="0 0 48 63" fill="none" xmlns="http://www.w3.org/2000/svg">
<rect width="48" height="48" rx="6" fill="#EEEEFF"/>
<g clip-path="url(#clip0_302_414)">
<path d="M22.0001 30.6667H13.3334V28H22.0001C22.8517 28.0003 23.6871 28.2337 24.4156 28.6748C25.1441 29.1159 25.738 29.748 26.133 30.5026C26.5279 31.2571 26.7088 32.1054 26.6561 32.9554C26.6034 33.8054 26.3191 34.6248 25.834 35.3248C25.3489 36.0248 24.6815 36.5787 23.9041 36.9265C23.1267 37.2743 22.2689 37.4027 21.4237 37.2978C20.5785 37.1929 19.7782 36.8587 19.1093 36.3315C18.4405 35.8042 17.9287 35.104 17.6294 34.3067L20.1267 33.3693C20.255 33.7111 20.4743 34.0112 20.7609 34.2372C21.0475 34.4632 21.3905 34.6064 21.7528 34.6514C22.115 34.6964 22.4826 34.6414 22.8158 34.4924C23.149 34.3434 23.4351 34.106 23.643 33.806C23.8509 33.506 23.9728 33.1549 23.9954 32.7906C24.018 32.4263 23.9405 32.0627 23.7713 31.7393C23.602 31.4159 23.3475 31.145 23.0353 30.9559C22.7231 30.7668 22.3651 30.6668 22.0001 30.6667ZM14.6667 22.6667H32.6667C33.5184 22.667 34.3538 22.9003 35.0823 23.3415C35.8108 23.7826 36.4047 24.4147 36.7996 25.1692C37.1946 25.9238 37.3755 26.772 37.3228 27.6221C37.2701 28.4721 36.9858 29.2915 36.5007 29.9915C36.0156 30.6915 35.3482 31.2454 34.5707 31.5932C33.7933 31.9409 32.9356 32.0694 32.0904 31.9645C31.2452 31.8596 30.4448 31.5254 29.776 30.9982C29.1072 30.4709 28.5954 29.7707 28.2961 28.9733L30.7934 28.036C30.9217 28.3777 31.141 28.6779 31.4276 28.9038C31.7142 29.1298 32.0572 29.2731 32.4194 29.3181C32.7817 29.3631 33.1493 29.3081 33.4825 29.159C33.8157 29.01 34.1017 28.7727 34.3097 28.4727C34.5176 28.1727 34.6395 27.8215 34.6621 27.4572C34.6847 27.0929 34.6072 26.7294 34.4379 26.406C34.2687 26.0826 34.0142 25.8117 33.702 25.6226C33.3898 25.4335 33.0318 25.3335 32.6667 25.3333H14.6667C13.6059 25.3333 12.5885 24.9119 11.8383 24.1618C11.0882 23.4116 10.6667 22.3942 10.6667 21.3333C10.6667 20.2725 11.0882 19.255 11.8383 18.5049C12.5885 17.7548 13.6059 17.3333 14.6667 17.3333H26.0001C26.3651 17.3332 26.7231 17.2331 27.0353 17.0441C27.3475 16.855 27.602 16.5841 27.7713 16.2607C27.9405 15.9373 28.018 15.5737 27.9954 15.2094C27.9728 14.8451 27.8509 14.494 27.643 14.194C27.4351 13.894 27.149 13.6566 26.8158 13.5076C26.4826 13.3586 26.115 13.3036 25.7528 13.3486C25.3905 13.3936 25.0475 13.5368 24.7609 13.7628C24.4743 13.9888 24.255 14.2889 24.1267 14.6307L21.6294 13.6947C22.014 12.6717 22.7454 11.8162 23.696 11.2771C24.6466 10.738 25.7563 10.5495 26.8316 10.7445C27.9069 10.9394 28.8797 11.5055 29.5805 12.3441C30.2814 13.1826 30.6658 14.2405 30.6667 15.3333C30.6667 16.571 30.1751 17.758 29.2999 18.6332C28.4247 19.5083 27.2378 20 26.0001 20H14.6667C14.3131 20 13.974 20.1405 13.7239 20.3905C13.4739 20.6406 13.3334 20.9797 13.3334 21.3333C13.3334 21.6869 13.4739 22.0261 13.7239 22.2761C13.974 22.5262 14.3131 22.6667 14.6667 22.6667Z" fill="#5B59E2"/>
</g>
<path d="M18.4533 61H17.53L20.2004 53.7273H21.1095L23.78 61H22.8567L20.6834 54.8778H20.6266L18.4533 61ZM18.7942 58.1591H22.5158V58.9403H18.7942V58.1591ZM30.1833 56H29.3026C29.2505 55.7467 29.1594 55.5241 29.0291 55.3324C28.9013 55.1406 28.7451 54.9796 28.5604 54.8494C28.3781 54.7169 28.1757 54.6174 27.9532 54.5511C27.7306 54.4848 27.4986 54.4517 27.2571 54.4517C26.8168 54.4517 26.4179 54.563 26.0604 54.7855C25.7053 55.008 25.4224 55.3359 25.2117 55.7692C25.0033 56.2024 24.8992 56.7339 24.8992 57.3636C24.8992 57.9934 25.0033 58.5249 25.2117 58.9581C25.4224 59.3913 25.7053 59.7192 26.0604 59.9418C26.4179 60.1643 26.8168 60.2756 27.2571 60.2756C27.4986 60.2756 27.7306 60.2424 27.9532 60.1761C28.1757 60.1098 28.3781 60.0116 28.5604 59.8814C28.7451 59.7488 28.9013 59.5866 29.0291 59.3949C29.1594 59.2008 29.2505 58.9782 29.3026 58.7273H30.1833C30.117 59.099 29.9962 59.4316 29.8211 59.7251C29.6459 60.0187 29.4281 60.2685 29.1676 60.4744C28.9072 60.678 28.6148 60.8331 28.2905 60.9396C27.9685 61.0462 27.6241 61.0994 27.2571 61.0994C26.6369 61.0994 26.0853 60.9479 25.6023 60.6449C25.1193 60.3419 24.7394 59.911 24.4624 59.3523C24.1854 58.7936 24.0469 58.1307 24.0469 57.3636C24.0469 56.5966 24.1854 55.9337 24.4624 55.375C24.7394 54.8163 25.1193 54.3854 25.6023 54.0824C26.0853 53.7794 26.6369 53.6278 27.2571 53.6278C27.6241 53.6278 27.9685 53.6811 28.2905 53.7876C28.6148 53.8942 28.9072 54.0504 29.1676 54.2564C29.4281 54.46 29.6459 54.7086 29.8211 55.0021C29.9962 55.2933 30.117 55.6259 30.1833 56Z" fill="#4F4F4F"/>
<defs>
<clipPath id="clip0_302_414">
<rect width="32" height="32" fill="white" transform="translate(8 8)"/>
</clipPath>
</defs>
</svg>
