<svg width="48" height="63" viewBox="0 0 48 63" fill="none" xmlns="http://www.w3.org/2000/svg">
<rect width="48" height="48" rx="6" fill="#EEEEFF"/>
<g clip-path="url(#clip0_302_415)">
<path d="M22.6667 33.3333V26.5187L12 14.6667V12H36V14.6667L25.3333 26.5187V33.3333H32V36H16V33.3333H22.6667ZM17.9867 17.3333H30.0133L32.4133 14.6667H15.5867L17.9867 17.3333ZM20.3867 20L24 24.0133L27.6133 20H20.3867Z" fill="#5B59E2"/>
</g>
<path d="M17.191 61V53.7273H19.7336C20.2402 53.7273 20.6581 53.8149 20.9872 53.9901C21.3162 54.1629 21.5613 54.3961 21.7222 54.6896C21.8832 54.9808 21.9637 55.304 21.9637 55.6591C21.9637 55.9716 21.9081 56.2296 21.7968 56.4332C21.6879 56.6368 21.5435 56.7978 21.3636 56.9162C21.186 57.0346 20.9931 57.1222 20.7847 57.179V57.25C21.0073 57.2642 21.231 57.3423 21.4559 57.4844C21.6808 57.6264 21.869 57.83 22.0205 58.0952C22.1721 58.3603 22.2478 58.6847 22.2478 59.0682C22.2478 59.4328 22.165 59.7607 21.9992 60.0518C21.8335 60.343 21.5719 60.5739 21.2144 60.7443C20.857 60.9148 20.3918 61 19.8188 61H17.191ZM18.0717 60.2188H19.8188C20.3941 60.2188 20.8025 60.1075 21.044 59.8849C21.2878 59.66 21.4097 59.3878 21.4097 59.0682C21.4097 58.822 21.347 58.5947 21.2215 58.3864C21.0961 58.1757 20.9173 58.0076 20.6853 57.8821C20.4533 57.7543 20.1787 57.6903 19.8614 57.6903H18.0717V60.2188ZM18.0717 56.9233H19.7052C19.9704 56.9233 20.2095 56.8712 20.4225 56.767C20.638 56.6629 20.8084 56.5161 20.9339 56.3267C21.0617 56.1373 21.1257 55.9148 21.1257 55.6591C21.1257 55.3395 21.0144 55.0684 20.7918 54.8459C20.5693 54.621 20.2166 54.5085 19.7336 54.5085H18.0717V56.9233ZM24.9464 61.1278C24.6007 61.1278 24.2871 61.0627 24.0053 60.9325C23.7236 60.8 23.4999 60.6094 23.3342 60.3608C23.1684 60.1098 23.0856 59.8068 23.0856 59.4517C23.0856 59.1392 23.1471 58.8859 23.2702 58.6918C23.3933 58.4953 23.5579 58.3414 23.7638 58.2301C23.9698 58.1188 24.1971 58.036 24.4457 57.9815C24.6966 57.9247 24.9487 57.8797 25.2021 57.8466C25.5335 57.804 25.8022 57.772 26.0082 57.7507C26.2165 57.727 26.368 57.688 26.4627 57.6335C26.5598 57.5791 26.6083 57.4844 26.6083 57.3494V57.321C26.6083 56.9706 26.5124 56.6984 26.3207 56.5043C26.1313 56.3101 25.8436 56.2131 25.4577 56.2131C25.0576 56.2131 24.744 56.3007 24.5167 56.4759C24.2894 56.651 24.1296 56.8381 24.0373 57.0369L23.2418 56.7528C23.3839 56.4214 23.5733 56.1634 23.81 55.9787C24.0491 55.7917 24.3095 55.6615 24.5913 55.5881C24.8754 55.5123 25.1547 55.4744 25.4293 55.4744C25.6045 55.4744 25.8058 55.4957 26.033 55.5384C26.2627 55.5786 26.484 55.6626 26.6971 55.7905C26.9125 55.9183 27.0913 56.1113 27.2333 56.3693C27.3754 56.6274 27.4464 56.973 27.4464 57.4062V61H26.6083V60.2614H26.5657C26.5089 60.3797 26.4142 60.5064 26.2816 60.6413C26.149 60.7763 25.9727 60.8911 25.7525 60.9858C25.5323 61.0805 25.2636 61.1278 24.9464 61.1278ZM25.0742 60.375C25.4057 60.375 25.685 60.3099 25.9123 60.1797C26.1419 60.0495 26.3147 59.8814 26.4308 59.6754C26.5491 59.4695 26.6083 59.2528 26.6083 59.0256V58.2585C26.5728 58.3011 26.4947 58.3402 26.3739 58.3757C26.2556 58.4089 26.1183 58.4384 25.962 58.4645C25.8081 58.4882 25.6578 58.5095 25.511 58.5284C25.3666 58.545 25.2494 58.5592 25.1594 58.571C24.9416 58.5994 24.738 58.6456 24.5487 58.7095C24.3616 58.7711 24.2101 58.8646 24.0941 58.9901C23.9805 59.1132 23.9237 59.2812 23.9237 59.4943C23.9237 59.7855 24.0314 60.0057 24.2468 60.1548C24.4646 60.3016 24.7404 60.375 25.0742 60.375ZM28.736 61V55.5455H29.5457V56.3693H29.6025C29.7019 56.0994 29.8819 55.8804 30.1423 55.7124C30.4027 55.5443 30.6963 55.4602 31.023 55.4602C31.0845 55.4602 31.1615 55.4614 31.2538 55.4638C31.3461 55.4661 31.416 55.4697 31.4633 55.4744V56.3267C31.4349 56.3196 31.3698 56.3089 31.268 56.2947C31.1686 56.2782 31.0632 56.2699 30.9519 56.2699C30.6868 56.2699 30.45 56.3255 30.2417 56.4368C30.0357 56.5457 29.8724 56.6972 29.7517 56.8913C29.6333 57.0831 29.5741 57.3021 29.5741 57.5483V61H28.736Z" fill="#4F4F4F"/>
<defs>
<clipPath id="clip0_302_415">
<rect width="32" height="32" fill="white" transform="translate(8 8)"/>
</clipPath>
</defs>
</svg>
