<svg width="279" height="48" viewBox="0 0 279 48" fill="none" xmlns="http://www.w3.org/2000/svg">
<rect width="279" height="48" rx="8" fill="#5D5FEF"/>
<path d="M93.098 31V16.4545H98.4247C99.4569 16.4545 100.312 16.625 100.989 16.9659C101.666 17.3021 102.172 17.759 102.509 18.3366C102.845 18.9096 103.013 19.5559 103.013 20.2756C103.013 20.8816 102.902 21.393 102.679 21.8097C102.456 22.2216 102.158 22.553 101.784 22.804C101.415 23.0502 101.008 23.2301 100.562 23.3438V23.4858C101.045 23.5095 101.517 23.6657 101.976 23.9545C102.44 24.2386 102.823 24.6435 103.126 25.169C103.429 25.6946 103.581 26.3338 103.581 27.0866C103.581 27.83 103.406 28.4976 103.055 29.0895C102.71 29.6766 102.175 30.143 101.45 30.4886C100.726 30.8295 99.8002 31 98.6733 31H93.098ZM95.2926 29.1179H98.4602C99.5114 29.1179 100.264 28.9143 100.719 28.5071C101.173 28.0999 101.401 27.5909 101.401 26.9801C101.401 26.5208 101.285 26.0994 101.053 25.7159C100.821 25.3324 100.489 25.027 100.058 24.7997C99.6321 24.5724 99.1255 24.4588 98.5384 24.4588H95.2926V29.1179ZM95.2926 22.7472H98.233C98.7254 22.7472 99.1681 22.6525 99.5611 22.4631C99.9588 22.2737 100.274 22.0085 100.506 21.6676C100.742 21.322 100.861 20.9148 100.861 20.446C100.861 19.8447 100.65 19.3404 100.229 18.9332C99.8073 18.526 99.161 18.3224 98.2898 18.3224H95.2926V22.7472ZM110.369 31.2202C109.346 31.2202 108.453 30.9858 107.691 30.517C106.929 30.0483 106.337 29.3925 105.916 28.5497C105.494 27.7069 105.283 26.7221 105.283 25.5952C105.283 24.4635 105.494 23.474 105.916 22.6264C106.337 21.7789 106.929 21.1207 107.691 20.652C108.453 20.1832 109.346 19.9489 110.369 19.9489C111.391 19.9489 112.284 20.1832 113.046 20.652C113.809 21.1207 114.4 21.7789 114.822 22.6264C115.243 23.474 115.454 24.4635 115.454 25.5952C115.454 26.7221 115.243 27.7069 114.822 28.5497C114.4 29.3925 113.809 30.0483 113.046 30.517C112.284 30.9858 111.391 31.2202 110.369 31.2202ZM110.376 29.4375C111.039 29.4375 111.588 29.2623 112.023 28.9119C112.459 28.5616 112.781 28.0952 112.989 27.5128C113.202 26.9304 113.309 26.2888 113.309 25.5881C113.309 24.892 113.202 24.2528 112.989 23.6705C112.781 23.0833 112.459 22.6122 112.023 22.2571C111.588 21.902 111.039 21.7244 110.376 21.7244C109.708 21.7244 109.154 21.902 108.714 22.2571C108.278 22.6122 107.954 23.0833 107.741 23.6705C107.532 24.2528 107.428 24.892 107.428 25.5881C107.428 26.2888 107.532 26.9304 107.741 27.5128C107.954 28.0952 108.278 28.5616 108.714 28.9119C109.154 29.2623 109.708 29.4375 110.376 29.4375ZM122.179 31.2202C121.157 31.2202 120.264 30.9858 119.502 30.517C118.74 30.0483 118.148 29.3925 117.726 28.5497C117.305 27.7069 117.094 26.7221 117.094 25.5952C117.094 24.4635 117.305 23.474 117.726 22.6264C118.148 21.7789 118.74 21.1207 119.502 20.652C120.264 20.1832 121.157 19.9489 122.179 19.9489C123.202 19.9489 124.095 20.1832 124.857 20.652C125.619 21.1207 126.211 21.7789 126.633 22.6264C127.054 23.474 127.265 24.4635 127.265 25.5952C127.265 26.7221 127.054 27.7069 126.633 28.5497C126.211 29.3925 125.619 30.0483 124.857 30.517C124.095 30.9858 123.202 31.2202 122.179 31.2202ZM122.187 29.4375C122.849 29.4375 123.399 29.2623 123.834 28.9119C124.27 28.5616 124.592 28.0952 124.8 27.5128C125.013 26.9304 125.12 26.2888 125.12 25.5881C125.12 24.892 125.013 24.2528 124.8 23.6705C124.592 23.0833 124.27 22.6122 123.834 22.2571C123.399 21.902 122.849 21.7244 122.187 21.7244C121.519 21.7244 120.965 21.902 120.525 22.2571C120.089 22.6122 119.765 23.0833 119.552 23.6705C119.343 24.2528 119.239 24.892 119.239 25.5881C119.239 26.2888 119.343 26.9304 119.552 27.5128C119.765 28.0952 120.089 28.5616 120.525 28.9119C120.965 29.2623 121.519 29.4375 122.187 29.4375ZM131.348 27.2997L131.334 24.7074H131.703L136.05 20.0909H138.592L133.635 25.3466H133.301L131.348 27.2997ZM129.395 31V16.4545H131.519V31H129.395ZM136.284 31L132.378 25.8153L133.841 24.331L138.891 31H136.284ZM157.251 16.4545V31H155.234L147.841 20.3324H147.706V31H145.511V16.4545H147.543L154.943 27.1364H155.078V16.4545H157.251ZM164.637 31.2202C163.615 31.2202 162.722 30.9858 161.96 30.517C161.198 30.0483 160.606 29.3925 160.184 28.5497C159.763 27.7069 159.552 26.7221 159.552 25.5952C159.552 24.4635 159.763 23.474 160.184 22.6264C160.606 21.7789 161.198 21.1207 161.96 20.652C162.722 20.1832 163.615 19.9489 164.637 19.9489C165.66 19.9489 166.553 20.1832 167.315 20.652C168.077 21.1207 168.669 21.7789 169.091 22.6264C169.512 23.474 169.723 24.4635 169.723 25.5952C169.723 26.7221 169.512 27.7069 169.091 28.5497C168.669 29.3925 168.077 30.0483 167.315 30.517C166.553 30.9858 165.66 31.2202 164.637 31.2202ZM164.645 29.4375C165.307 29.4375 165.857 29.2623 166.292 28.9119C166.728 28.5616 167.05 28.0952 167.258 27.5128C167.471 26.9304 167.578 26.2888 167.578 25.5881C167.578 24.892 167.471 24.2528 167.258 23.6705C167.05 23.0833 166.728 22.6122 166.292 22.2571C165.857 21.902 165.307 21.7244 164.645 21.7244C163.977 21.7244 163.423 21.902 162.983 22.2571C162.547 22.6122 162.223 23.0833 162.01 23.6705C161.801 24.2528 161.697 24.892 161.697 25.5881C161.697 26.2888 161.801 26.9304 162.01 27.5128C162.223 28.0952 162.547 28.5616 162.983 28.9119C163.423 29.2623 163.977 29.4375 164.645 29.4375ZM173.886 31L170.676 20.0909H172.87L175.008 28.1023H175.115L177.26 20.0909H179.454L181.585 28.0668H181.691L183.815 20.0909H186.01L182.807 31H180.64L178.424 23.1236H178.261L176.045 31H173.886Z" fill="white"/>
</svg>
