<svg width="32" height="32" viewBox="0 0 32 32" fill="none" xmlns="http://www.w3.org/2000/svg">
<g clip-path="url(#clip0_1_204)">
<path d="M6.66659 2.66663H25.3333C25.6869 2.66663 26.026 2.8071 26.2761 3.05715C26.5261 3.3072 26.6666 3.64634 26.6666 3.99996V29.524C26.6667 29.6432 26.6349 29.7602 26.5744 29.863C26.514 29.9657 26.4271 30.0503 26.3228 30.1081C26.2185 30.1658 26.1006 30.1945 25.9814 30.1912C25.8623 30.1879 25.7462 30.1527 25.6453 30.0893L15.9999 24.04L6.35458 30.088C6.25374 30.1513 6.13777 30.1865 6.01872 30.1899C5.89967 30.1932 5.7819 30.1646 5.67765 30.1071C5.57339 30.0495 5.48646 29.965 5.4259 29.8625C5.36533 29.76 5.33334 29.6431 5.33325 29.524V3.99996C5.33325 3.64634 5.47373 3.3072 5.72378 3.05715C5.97382 2.8071 6.31296 2.66663 6.66659 2.66663ZM23.9999 5.33329H7.99992V25.9093L15.9999 20.8946L23.9999 25.9093V5.33329Z" fill="#BDBDBD"/>
</g>
<defs>
<clipPath id="clip0_1_204">
<rect width="32" height="32" fill="white"/>
</clipPath>
</defs>
</svg>
