<svg width="24" height="24" viewBox="0 0 24 24" fill="none" xmlns="http://www.w3.org/2000/svg">
<rect width="24" height="24" rx="4" fill="#EEEEFF"/>
<g clip-path="url(#clip0_302_295)">
<path d="M6.75 4.5H17.25C17.4489 4.5 17.6397 4.57902 17.7803 4.71967C17.921 4.86032 18 5.05109 18 5.25V19.6073C18.0001 19.6743 17.9822 19.7402 17.9482 19.7979C17.9142 19.8557 17.8653 19.9033 17.8066 19.9358C17.7479 19.9683 17.6816 19.9844 17.6146 19.9826C17.5476 19.9807 17.4823 19.9609 17.4255 19.9252L12 16.5225L6.5745 19.9245C6.51778 19.9601 6.45254 19.9799 6.38558 19.9818C6.31861 19.9837 6.25236 19.9676 6.19372 19.9352C6.13508 19.9029 6.08618 19.8554 6.05211 19.7977C6.01804 19.74 6.00005 19.6742 6 19.6073V5.25C6 5.05109 6.07902 4.86032 6.21967 4.71967C6.36032 4.57902 6.55109 4.5 6.75 4.5Z" fill="#5B59E2"/>
</g>
<defs>
<clipPath id="clip0_302_295">
<rect width="18" height="18" fill="white" transform="translate(3 3)"/>
</clipPath>
</defs>
</svg>
