<svg width="32" height="32" viewBox="0 0 32 32" fill="none" xmlns="http://www.w3.org/2000/svg">
<g clip-path="url(#clip0_1_218)">
<path d="M26.6666 26.6667C26.6666 27.0203 26.5261 27.3595 26.2761 27.6095C26.026 27.8596 25.6869 28.0001 25.3333 28.0001H6.66658C6.31296 28.0001 5.97382 27.8596 5.72378 27.6095C5.47373 27.3595 5.33325 27.0203 5.33325 26.6667V14.6667H1.33325L15.1026 2.14939C15.3481 1.92603 15.668 1.80225 15.9999 1.80225C16.3318 1.80225 16.6518 1.92603 16.8973 2.14939L30.6666 14.6667H26.6666V26.6667ZM9.99992 17.3334C9.99992 18.9247 10.6321 20.4508 11.7573 21.576C12.8825 22.7012 14.4086 23.3334 15.9999 23.3334C17.5912 23.3334 19.1173 22.7012 20.2426 21.576C21.3678 20.4508 21.9999 18.9247 21.9999 17.3334H19.3333C19.3333 18.2174 18.9821 19.0653 18.3569 19.6904C17.7318 20.3155 16.884 20.6667 15.9999 20.6667C15.1159 20.6667 14.268 20.3155 13.6429 19.6904C13.0178 19.0653 12.6666 18.2174 12.6666 17.3334H9.99992Z" fill="#5B59E2"/>
</g>
<defs>
<clipPath id="clip0_1_218">
<rect width="32" height="32" fill="white"/>
</clipPath>
</defs>
</svg>
