<svg width="59" height="20" viewBox="0 0 59 20" fill="none" xmlns="http://www.w3.org/2000/svg">
<rect width="59" height="20" rx="6" fill="#EEEEFF"/>
<path d="M17.2683 6.72727H18.5999L20.9153 12.3807H21.0005L23.3158 6.72727H24.6475V14H23.6035V8.73722H23.536L21.3911 13.9893H20.5247L18.3798 8.73366H18.3123V14H17.2683V6.72727ZM28.2152 14.1101C27.7039 14.1101 27.2576 13.9929 26.8765 13.7585C26.4953 13.5241 26.1994 13.1963 25.9887 12.7749C25.778 12.3535 25.6726 11.861 25.6726 11.2976C25.6726 10.7318 25.778 10.237 25.9887 9.81321C26.1994 9.38944 26.4953 9.06037 26.8765 8.82599C27.2576 8.59162 27.7039 8.47443 28.2152 8.47443C28.7266 8.47443 29.1729 8.59162 29.554 8.82599C29.9352 9.06037 30.2311 9.38944 30.4418 9.81321C30.6525 10.237 30.7578 10.7318 30.7578 11.2976C30.7578 11.861 30.6525 12.3535 30.4418 12.7749C30.2311 13.1963 29.9352 13.5241 29.554 13.7585C29.1729 13.9929 28.7266 14.1101 28.2152 14.1101ZM28.2188 13.2188C28.5502 13.2188 28.8248 13.1312 29.0426 12.956C29.2604 12.7808 29.4214 12.5476 29.5256 12.2564C29.6321 11.9652 29.6854 11.6444 29.6854 11.294C29.6854 10.946 29.6321 10.6264 29.5256 10.3352C29.4214 10.0417 29.2604 9.80611 29.0426 9.62855C28.8248 9.45099 28.5502 9.36222 28.2188 9.36222C27.885 9.36222 27.608 9.45099 27.3878 9.62855C27.17 9.80611 27.0078 10.0417 26.9013 10.3352C26.7971 10.6264 26.7451 10.946 26.7451 11.294C26.7451 11.6444 26.7971 11.9652 26.9013 12.2564C27.0078 12.5476 27.17 12.7808 27.3878 12.956C27.608 13.1312 27.885 13.2188 28.2188 13.2188ZM34.2492 8.54545V9.39773H31.2698V8.54545H34.2492ZM32.0688 7.23864H33.1306V12.3984C33.1306 12.6044 33.1614 12.7595 33.2229 12.8636C33.2845 12.9654 33.3638 13.0353 33.4608 13.0732C33.5603 13.1087 33.668 13.1264 33.784 13.1264C33.8692 13.1264 33.9438 13.1205 34.0077 13.1087C34.0716 13.0968 34.1214 13.0874 34.1569 13.0803L34.3486 13.9574C34.2871 13.9811 34.1995 14.0047 34.0858 14.0284C33.9722 14.0545 33.8302 14.0687 33.6597 14.071C33.3804 14.0758 33.1199 14.026 32.8785 13.9219C32.637 13.8177 32.4417 13.6567 32.2925 13.4389C32.1434 13.2211 32.0688 12.9477 32.0688 12.6186V7.23864ZM37.476 14.1101C36.9386 14.1101 36.4758 13.9953 36.0875 13.7656C35.7016 13.5336 35.4033 13.2081 35.1926 12.7891C34.9843 12.3677 34.8801 11.8741 34.8801 11.3082C34.8801 10.7495 34.9843 10.2571 35.1926 9.83097C35.4033 9.40483 35.6969 9.07221 36.0733 8.8331C36.4521 8.59399 36.8948 8.47443 37.4014 8.47443C37.7092 8.47443 38.0075 8.52533 38.2963 8.62713C38.5851 8.72893 38.8444 8.88873 39.074 9.10653C39.3036 9.32434 39.4848 9.60724 39.6173 9.95526C39.7499 10.3009 39.8162 10.7211 39.8162 11.2159V11.5923H35.4803V10.7969H38.7757C38.7757 10.5175 38.7189 10.2701 38.6053 10.0547C38.4916 9.83688 38.3318 9.66525 38.1259 9.53977C37.9223 9.4143 37.6831 9.35156 37.4085 9.35156C37.1102 9.35156 36.8498 9.42495 36.6273 9.57173C36.4071 9.71615 36.2367 9.90554 36.1159 10.1399C35.9975 10.3719 35.9384 10.6241 35.9384 10.8963V11.5178C35.9384 11.8823 36.0023 12.1925 36.1301 12.4482C36.2603 12.7038 36.4414 12.8991 36.6734 13.0341C36.9054 13.1667 37.1765 13.233 37.4867 13.233C37.6879 13.233 37.8714 13.2045 38.0371 13.1477C38.2028 13.0885 38.346 13.0009 38.4668 12.8849C38.5875 12.7689 38.6798 12.6257 38.7438 12.4553L39.7487 12.6364C39.6682 12.9323 39.5238 13.1915 39.3155 13.4141C39.1095 13.6342 38.8503 13.8059 38.5378 13.929C38.2277 14.0497 37.8737 14.1101 37.476 14.1101ZM41.8161 6.72727V14H40.7543V6.72727H41.8161Z" fill="#5B59E2"/>
</svg>
