<svg width="48" height="64" viewBox="0 0 48 64" fill="none" xmlns="http://www.w3.org/2000/svg">
<rect width="48" height="48" rx="6" fill="#EEEEFF"/>
<g clip-path="url(#clip0_302_413)">
<path d="M24.9427 31.724C26.0454 32.8267 27.0601 33.3333 28.0001 33.3333C28.5041 33.3333 28.9067 33.244 29.6494 32.9653L30.1721 32.7627C31.5721 32.2 32.2787 32 33.3334 32C34.9521 32 36.5054 32.7267 37.9814 34.1067L38.2761 34.3907L36.3907 36.276C35.2881 35.1733 34.2734 34.6667 33.3334 34.6667C32.8294 34.6667 32.4268 34.756 31.6841 35.0347L31.1614 35.2373C29.7614 35.7987 29.0547 36 28.0001 36C26.3814 36 24.8281 35.2733 23.3521 33.8933L23.0574 33.6093L24.9427 31.724ZM20.0001 12C20.0001 13.0609 20.4215 14.0783 21.1717 14.8284C21.9218 15.5786 22.9392 16 24.0001 16C25.0609 16 26.0784 15.5786 26.8285 14.8284C27.5787 14.0783 28.0001 13.0609 28.0001 12H36.0001C36.3537 12 36.6928 12.1405 36.9429 12.3905C37.1929 12.6406 37.3334 12.9797 37.3334 13.3333V22.6667C37.3334 23.0203 37.1929 23.3594 36.9429 23.6095C36.6928 23.8595 36.3537 24 36.0001 24H30.6641V21.3333L34.6667 21.332V14.6653H30.1107L30.0881 14.72C29.5824 15.8505 28.772 16.8178 27.7476 17.5137C26.7232 18.2096 25.5253 18.6065 24.2881 18.66L24.0001 18.6667C22.7126 18.6668 21.4526 18.2942 20.3723 17.5938C19.292 16.8935 18.4375 15.8954 17.9121 14.72L17.8881 14.6667H13.3334V21.3333L17.3321 21.332V33.3333H21.3334V36H16.0001C15.6465 36 15.3073 35.8595 15.0573 35.6095C14.8072 35.3594 14.6667 35.0203 14.6667 34.6667L14.6654 23.9987L12.0001 24C11.6465 24 11.3073 23.8595 11.0573 23.6095C10.8072 23.3594 10.6667 23.0203 10.6667 22.6667V13.3333C10.6667 12.9797 10.8072 12.6406 11.0573 12.3905C11.3073 12.1405 11.6465 12 12.0001 12H20.0001ZM24.9427 26.3907C26.0454 27.4933 27.0601 28 28.0001 28C28.5041 28 28.9067 27.9107 29.6494 27.632L30.1721 27.4293C31.5721 26.8667 32.2787 26.6667 33.3334 26.6667C34.9521 26.6667 36.5054 27.3933 37.9814 28.7733L38.2761 29.0573L36.3907 30.9427C35.2881 29.84 34.2734 29.3333 33.3334 29.3333C32.8294 29.3333 32.4268 29.4227 31.6841 29.7013L31.1614 29.904C29.7614 30.4653 29.0547 30.6667 28.0001 30.6667C26.3814 30.6667 24.8281 29.94 23.3521 28.56L23.0574 28.276L24.9427 26.3907Z" fill="#5B59E2"/>
</g>
<path d="M6.30869 61V53.7273H7.18937V60.2188H10.5701V61H6.30869ZM13.1852 61.1278C12.8395 61.1278 12.5258 61.0627 12.2441 60.9325C11.9624 60.8 11.7387 60.6094 11.573 60.3608C11.4072 60.1098 11.3244 59.8068 11.3244 59.4517C11.3244 59.1392 11.3859 58.8859 11.509 58.6918C11.6321 58.4953 11.7967 58.3414 12.0026 58.2301C12.2086 58.1188 12.4359 58.036 12.6845 57.9815C12.9354 57.9247 13.1875 57.8797 13.4408 57.8466C13.7723 57.804 14.041 57.772 14.247 57.7507C14.4553 57.727 14.6068 57.688 14.7015 57.6335C14.7986 57.5791 14.8471 57.4844 14.8471 57.3494V57.321C14.8471 56.9706 14.7512 56.6984 14.5595 56.5043C14.3701 56.3101 14.0824 56.2131 13.6965 56.2131C13.2964 56.2131 12.9828 56.3007 12.7555 56.4759C12.5282 56.651 12.3684 56.8381 12.2761 57.0369L11.4806 56.7528C11.6227 56.4214 11.8121 56.1634 12.0488 55.9787C12.2879 55.7917 12.5483 55.6615 12.8301 55.5881C13.1141 55.5123 13.3935 55.4744 13.6681 55.4744C13.8433 55.4744 14.0445 55.4957 14.2718 55.5384C14.5015 55.5786 14.7228 55.6626 14.9359 55.7905C15.1513 55.9183 15.3301 56.1113 15.4721 56.3693C15.6141 56.6274 15.6852 56.973 15.6852 57.4062V61H14.8471V60.2614H14.8045C14.7477 60.3797 14.653 60.5064 14.5204 60.6413C14.3878 60.7763 14.2114 60.8911 13.9913 60.9858C13.7711 61.0805 13.5024 61.1278 13.1852 61.1278ZM13.313 60.375C13.6444 60.375 13.9238 60.3099 14.1511 60.1797C14.3807 60.0495 14.5535 59.8814 14.6695 59.6754C14.7879 59.4695 14.8471 59.2528 14.8471 59.0256V58.2585C14.8116 58.3011 14.7335 58.3402 14.6127 58.3757C14.4944 58.4089 14.357 58.4384 14.2008 58.4645C14.0469 58.4882 13.8966 58.5095 13.7498 58.5284C13.6054 58.545 13.4882 58.5592 13.3982 58.571C13.1804 58.5994 12.9768 58.6456 12.7874 58.7095C12.6004 58.7711 12.4489 58.8646 12.3329 58.9901C12.2193 59.1132 12.1624 59.2812 12.1624 59.4943C12.1624 59.7855 12.2702 60.0057 12.4856 60.1548C12.7034 60.3016 12.9792 60.375 13.313 60.375ZM20.4123 58.7699V55.5455H21.2504V61H20.4123V60.0767H20.3555C20.2277 60.3537 20.0288 60.5893 19.7589 60.7834C19.489 60.9751 19.1481 61.071 18.7362 61.071C18.3953 61.071 18.0922 60.9964 17.8271 60.8473C17.5619 60.6958 17.3536 60.4685 17.2021 60.1655C17.0506 59.8601 16.9748 59.4754 16.9748 59.0114V55.5455H17.8129V58.9545C17.8129 59.3523 17.9242 59.6695 18.1467 59.9062C18.3716 60.143 18.6581 60.2614 19.0061 60.2614C19.2144 60.2614 19.4263 60.2081 19.6417 60.1016C19.8595 59.995 20.0418 59.8317 20.1886 59.6115C20.3377 59.3913 20.4123 59.1108 20.4123 58.7699ZM23.3834 57.7188V61H22.5454V55.5455H23.355V56.3977H23.426C23.5539 56.1207 23.748 55.8982 24.0084 55.7301C24.2689 55.5597 24.605 55.4744 25.017 55.4744C25.3863 55.4744 25.7094 55.5502 25.9864 55.7017C26.2634 55.8509 26.4788 56.0781 26.6327 56.3835C26.7866 56.6866 26.8635 57.0701 26.8635 57.5341V61H26.0255V57.5909C26.0255 57.1624 25.9142 56.8286 25.6917 56.5895C25.4691 56.348 25.1637 56.2273 24.7755 56.2273C24.508 56.2273 24.2689 56.2853 24.0581 56.4013C23.8498 56.5173 23.6853 56.6866 23.5645 56.9091C23.4438 57.1316 23.3834 57.4015 23.3834 57.7188ZM30.2146 61.1136C29.7601 61.1136 29.3588 60.9988 29.0108 60.7692C28.6628 60.5372 28.3905 60.2105 28.194 59.7891C27.9975 59.3653 27.8993 58.8646 27.8993 58.2869C27.8993 57.714 27.9975 57.2169 28.194 56.7955C28.3905 56.3741 28.664 56.0485 29.0144 55.8189C29.3647 55.5893 29.7696 55.4744 30.2288 55.4744C30.584 55.4744 30.8645 55.5336 31.0705 55.652C31.2788 55.768 31.4374 55.9006 31.5463 56.0497C31.6576 56.1965 31.744 56.3172 31.8055 56.4119H31.8766V53.7273H32.7146V61H31.905V60.1619H31.8055C31.744 60.2614 31.6564 60.3868 31.5428 60.5384C31.4291 60.6875 31.267 60.8213 31.0563 60.9396C30.8456 61.0556 30.565 61.1136 30.2146 61.1136ZM30.3283 60.3608C30.6644 60.3608 30.9485 60.2732 31.1805 60.098C31.4126 59.9205 31.5889 59.6754 31.7097 59.3629C31.8304 59.0481 31.8908 58.6847 31.8908 58.2727C31.8908 57.8655 31.8316 57.5092 31.7132 57.2038C31.5948 56.8961 31.4197 56.657 31.1876 56.4865C30.9556 56.3137 30.6692 56.2273 30.3283 56.2273C29.9732 56.2273 29.6772 56.3184 29.4405 56.5007C29.2061 56.6806 29.0297 56.9257 28.9114 57.2358C28.7954 57.5436 28.7374 57.8892 28.7374 58.2727C28.7374 58.661 28.7965 59.0137 28.9149 59.331C29.0357 59.6458 29.2132 59.8968 29.4476 60.0838C29.6843 60.2685 29.9779 60.3608 30.3283 60.3608ZM34.1259 61V55.5455H34.9356V56.3693H34.9924C35.0918 56.0994 35.2717 55.8804 35.5322 55.7124C35.7926 55.5443 36.0861 55.4602 36.4128 55.4602C36.4744 55.4602 36.5513 55.4614 36.6437 55.4638C36.736 55.4661 36.8058 55.4697 36.8532 55.4744V56.3267C36.8248 56.3196 36.7597 56.3089 36.6579 56.2947C36.5584 56.2782 36.4531 56.2699 36.3418 56.2699C36.0767 56.2699 35.8399 56.3255 35.6316 56.4368C35.4256 56.5457 35.2623 56.6972 35.1415 56.8913C35.0232 57.0831 34.964 57.3021 34.964 57.5483V61H34.1259ZM38.3124 63.0455C38.1704 63.0455 38.0437 63.0336 37.9324 63.0099C37.8212 62.9886 37.7442 62.9673 37.7016 62.946L37.9147 62.2074C38.1183 62.2595 38.2982 62.2784 38.4544 62.2642C38.6107 62.25 38.7492 62.1802 38.8699 62.0547C38.993 61.9316 39.1055 61.7315 39.2073 61.4545L39.3635 61.0284L37.3465 55.5455H38.2556L39.7613 59.892H39.8181L41.3238 55.5455H42.2329L39.9175 61.7955C39.8133 62.0772 39.6843 62.3104 39.5304 62.495C39.3766 62.6821 39.1978 62.8205 38.9942 62.9105C38.793 63.0005 38.5657 63.0455 38.3124 63.0455Z" fill="#4F4F4F"/>
<defs>
<clipPath id="clip0_302_413">
<rect width="32" height="32" fill="white" transform="translate(8 8)"/>
</clipPath>
</defs>
</svg>
