<svg width="48" height="64" viewBox="0 0 48 64" fill="none" xmlns="http://www.w3.org/2000/svg">
<rect width="48" height="48" rx="6" fill="#EEEEFF"/>
<g clip-path="url(#clip0_302_411)">
<path d="M33.3334 34.6667H14.6667V36C14.6667 36.3537 14.5263 36.6928 14.2762 36.9429C14.0262 37.1929 13.687 37.3334 13.3334 37.3334H12.0001C11.6465 37.3334 11.3073 37.1929 11.0573 36.9429C10.8072 36.6928 10.6667 36.3537 10.6667 36V22.6667L13.9734 14.9494C14.1792 14.4694 14.5214 14.0604 14.9575 13.7731C15.3936 13.4858 15.9045 13.3329 16.4267 13.3334H31.5734C32.0952 13.3334 32.6055 13.4866 33.0411 13.7738C33.4767 14.0611 33.8185 14.4698 34.0241 14.9494L37.3334 22.6667V36C37.3334 36.3537 37.1929 36.6928 36.9429 36.9429C36.6928 37.1929 36.3537 37.3334 36.0001 37.3334H34.6667C34.3131 37.3334 33.974 37.1929 33.7239 36.9429C33.4739 36.6928 33.3334 36.3537 33.3334 36V34.6667ZM34.6667 25.3334H13.3334V32H34.6667V25.3334ZM13.5681 22.6667H34.4321L31.5747 16H16.4267L13.5694 22.6667H13.5681ZM16.6667 30.6667C16.1363 30.6667 15.6276 30.456 15.2525 30.0809C14.8775 29.7058 14.6667 29.1971 14.6667 28.6667C14.6667 28.1363 14.8775 27.6276 15.2525 27.2525C15.6276 26.8774 16.1363 26.6667 16.6667 26.6667C17.1972 26.6667 17.7059 26.8774 18.081 27.2525C18.456 27.6276 18.6667 28.1363 18.6667 28.6667C18.6667 29.1971 18.456 29.7058 18.081 30.0809C17.7059 30.456 17.1972 30.6667 16.6667 30.6667ZM31.3334 30.6667C30.803 30.6667 30.2943 30.456 29.9192 30.0809C29.5441 29.7058 29.3334 29.1971 29.3334 28.6667C29.3334 28.1363 29.5441 27.6276 29.9192 27.2525C30.2943 26.8774 30.803 26.6667 31.3334 26.6667C31.8638 26.6667 32.3726 26.8774 32.7476 27.2525C33.1227 27.6276 33.3334 28.1363 33.3334 28.6667C33.3334 29.1971 33.1227 29.7058 32.7476 30.0809C32.3726 30.456 31.8638 30.6667 31.3334 30.6667Z" fill="#5B59E2"/>
</g>
<path d="M7.87119 61V53.7273H10.3286C10.8991 53.7273 11.3655 53.8303 11.7277 54.0362C12.0923 54.2398 12.3622 54.5156 12.5374 54.8636C12.7126 55.2116 12.8002 55.5999 12.8002 56.0284C12.8002 56.4569 12.7126 56.8464 12.5374 57.1967C12.3646 57.5471 12.097 57.8265 11.7348 58.0348C11.3726 58.2408 10.9086 58.3438 10.3428 58.3438H8.58142V57.5625H10.3144C10.705 57.5625 11.0187 57.495 11.2554 57.3601C11.4922 57.2251 11.6638 57.0429 11.7703 56.8132C11.8792 56.5812 11.9337 56.3196 11.9337 56.0284C11.9337 55.7372 11.8792 55.4768 11.7703 55.2472C11.6638 55.0175 11.491 54.8376 11.2519 54.7074C11.0128 54.5748 10.6955 54.5085 10.3002 54.5085H8.75187V61H7.87119ZM15.4703 61.1278C15.1247 61.1278 14.811 61.0627 14.5293 60.9325C14.2475 60.8 14.0238 60.6094 13.8581 60.3608C13.6924 60.1098 13.6095 59.8068 13.6095 59.4517C13.6095 59.1392 13.6711 58.8859 13.7942 58.6918C13.9173 58.4953 14.0818 58.3414 14.2878 58.2301C14.4938 58.1188 14.721 58.036 14.9696 57.9815C15.2206 57.9247 15.4727 57.8797 15.726 57.8466C16.0574 57.804 16.3261 57.772 16.5321 57.7507C16.7404 57.727 16.892 57.688 16.9867 57.6335C17.0837 57.5791 17.1323 57.4844 17.1323 57.3494V57.321C17.1323 56.9706 17.0364 56.6984 16.8446 56.5043C16.6552 56.3101 16.3676 56.2131 15.9817 56.2131C15.5816 56.2131 15.2679 56.3007 15.0406 56.4759C14.8134 56.651 14.6536 56.8381 14.5612 57.0369L13.7658 56.7528C13.9078 56.4214 14.0972 56.1634 14.334 55.9787C14.5731 55.7917 14.8335 55.6615 15.1152 55.5881C15.3993 55.5123 15.6787 55.4744 15.9533 55.4744C16.1285 55.4744 16.3297 55.4957 16.557 55.5384C16.7866 55.5786 17.008 55.6626 17.221 55.7905C17.4365 55.9183 17.6152 56.1113 17.7573 56.3693C17.8993 56.6274 17.9703 56.973 17.9703 57.4062V61H17.1323V60.2614H17.0896C17.0328 60.3797 16.9381 60.5064 16.8056 60.6413C16.673 60.7763 16.4966 60.8911 16.2764 60.9858C16.0563 61.0805 15.7876 61.1278 15.4703 61.1278ZM15.5982 60.375C15.9296 60.375 16.209 60.3099 16.4362 60.1797C16.6659 60.0495 16.8387 59.8814 16.9547 59.6754C17.0731 59.4695 17.1323 59.2528 17.1323 59.0256V58.2585C17.0967 58.3011 17.0186 58.3402 16.8979 58.3757C16.7795 58.4089 16.6422 58.4384 16.4859 58.4645C16.3321 58.4882 16.1817 58.5095 16.035 58.5284C15.8905 58.545 15.7734 58.5592 15.6834 58.571C15.4656 58.5994 15.262 58.6456 15.0726 58.7095C14.8856 58.7711 14.7341 58.8646 14.6181 58.9901C14.5044 59.1132 14.4476 59.2812 14.4476 59.4943C14.4476 59.7855 14.5553 60.0057 14.7707 60.1548C14.9886 60.3016 15.2644 60.375 15.5982 60.375ZM19.26 61V55.5455H20.0696V56.3693H20.1265C20.2259 56.0994 20.4058 55.8804 20.6662 55.7124C20.9266 55.5443 21.2202 55.4602 21.5469 55.4602C21.6085 55.4602 21.6854 55.4614 21.7777 55.4638C21.8701 55.4661 21.9399 55.4697 21.9872 55.4744V56.3267C21.9588 56.3196 21.8937 56.3089 21.7919 56.2947C21.6925 56.2782 21.5872 56.2699 21.4759 56.2699C21.2107 56.2699 20.974 56.3255 20.7657 56.4368C20.5597 56.5457 20.3963 56.6972 20.2756 56.8913C20.1572 57.0831 20.098 57.3021 20.098 57.5483V61H19.26ZM23.5219 59.0114L23.5077 57.9744H23.6782L26.0645 55.5455H27.1015L24.5589 58.1165H24.4878L23.5219 59.0114ZM22.7407 61V53.7273H23.5787V61H22.7407ZM26.2066 61L24.0759 58.3011L24.6725 57.7188L27.2719 61H26.2066ZM27.9401 61V55.5455H28.7782V61H27.9401ZM28.3663 54.6364C28.2029 54.6364 28.0621 54.5807 27.9437 54.4695C27.8277 54.3582 27.7697 54.2244 27.7697 54.0682C27.7697 53.9119 27.8277 53.7782 27.9437 53.6669C28.0621 53.5556 28.2029 53.5 28.3663 53.5C28.5296 53.5 28.6693 53.5556 28.7853 53.6669C28.9037 53.7782 28.9629 53.9119 28.9629 54.0682C28.9629 54.2244 28.9037 54.3582 28.7853 54.4695C28.6693 54.5807 28.5296 54.6364 28.3663 54.6364ZM30.9112 57.7188V61H30.0732V55.5455H30.8828V56.3977H30.9539C31.0817 56.1207 31.2758 55.8982 31.5362 55.7301C31.7967 55.5597 32.1328 55.4744 32.5448 55.4744C32.9141 55.4744 33.2372 55.5502 33.5142 55.7017C33.7912 55.8509 34.0067 56.0781 34.1605 56.3835C34.3144 56.6866 34.3914 57.0701 34.3914 57.5341V61H33.5533V57.5909C33.5533 57.1624 33.442 56.8286 33.2195 56.5895C32.9969 56.348 32.6915 56.2273 32.3033 56.2273C32.0358 56.2273 31.7967 56.2853 31.586 56.4013C31.3776 56.5173 31.2131 56.6866 31.0924 56.9091C30.9716 57.1316 30.9112 57.4015 30.9112 57.7188ZM37.8845 63.1591C37.4797 63.1591 37.1317 63.107 36.8405 63.0028C36.5493 62.901 36.3066 62.7661 36.1125 62.598C35.9207 62.4323 35.768 62.2547 35.6544 62.0653L36.322 61.5966C36.3977 61.696 36.4936 61.8097 36.6096 61.9375C36.7256 62.0677 36.8843 62.1802 37.0855 62.2749C37.2891 62.3719 37.5554 62.4205 37.8845 62.4205C38.3248 62.4205 38.6882 62.3139 38.9747 62.1009C39.2611 61.8878 39.4044 61.554 39.4044 61.0994V59.9915H39.3334C39.2718 60.0909 39.1842 60.214 39.0706 60.3608C38.9593 60.5052 38.7983 60.6342 38.5876 60.7479C38.3793 60.8591 38.0976 60.9148 37.7424 60.9148C37.3021 60.9148 36.9067 60.8106 36.5564 60.6023C36.2084 60.3939 35.9325 60.0909 35.729 59.6932C35.5277 59.2955 35.4271 58.8125 35.4271 58.2443C35.4271 57.6856 35.5254 57.1991 35.7218 56.7848C35.9183 56.3681 36.1918 56.0462 36.5422 55.8189C36.8925 55.5893 37.2974 55.4744 37.7567 55.4744C38.1118 55.4744 38.3935 55.5336 38.6018 55.652C38.8125 55.768 38.9735 55.9006 39.0848 56.0497C39.1984 56.1965 39.286 56.3172 39.3476 56.4119H39.4328V55.5455H40.2424V61.1562C40.2424 61.625 40.1359 62.0062 39.9228 62.2997C39.7121 62.5956 39.4281 62.8123 39.0706 62.9496C38.7155 63.0893 38.3201 63.1591 37.8845 63.1591ZM37.8561 60.1619C38.1923 60.1619 38.4763 60.085 38.7084 59.9311C38.9404 59.7772 39.1167 59.5559 39.2375 59.267C39.3582 58.9782 39.4186 58.6326 39.4186 58.2301C39.4186 57.8371 39.3594 57.4903 39.241 57.1896C39.1227 56.889 38.9475 56.6534 38.7155 56.483C38.4834 56.3125 38.197 56.2273 37.8561 56.2273C37.501 56.2273 37.205 56.3172 36.9683 56.4972C36.7339 56.6771 36.5575 56.9186 36.4392 57.2216C36.3232 57.5246 36.2652 57.8608 36.2652 58.2301C36.2652 58.6089 36.3244 58.9439 36.4427 59.2351C36.5635 59.5239 36.741 59.7512 36.9754 59.9169C37.2121 60.0803 37.5057 60.1619 37.8561 60.1619Z" fill="#4F4F4F"/>
<defs>
<clipPath id="clip0_302_411">
<rect width="32" height="32" fill="white" transform="translate(8 8)"/>
</clipPath>
</defs>
</svg>
