<svg width="31" height="17" viewBox="0 0 31 17" fill="none" xmlns="http://www.w3.org/2000/svg">
<path d="M5.3821 16.6364V0.272726H6.4304V16.6364H5.3821ZM8.40554 5.50781C8.34588 4.94957 8.09446 4.51491 7.65128 4.20384C7.21236 3.89276 6.64134 3.73722 5.93821 3.73722C5.44389 3.73722 5.01989 3.81179 4.66619 3.96094C4.3125 4.11008 4.0419 4.3125 3.8544 4.56818C3.6669 4.82386 3.57102 5.11577 3.56676 5.44389C3.56676 5.71662 3.62855 5.95312 3.75213 6.15341C3.87997 6.35369 4.05256 6.52415 4.26989 6.66477C4.48722 6.80114 4.72798 6.91619 4.99219 7.00994C5.25639 7.10369 5.52273 7.18253 5.79119 7.24645L7.01847 7.55327C7.51278 7.66832 7.98793 7.82386 8.44389 8.01989C8.90412 8.21591 9.31534 8.46307 9.67756 8.76136C10.044 9.05966 10.3338 9.41974 10.5469 9.84162C10.7599 10.2635 10.8665 10.7578 10.8665 11.3246C10.8665 12.0916 10.6705 12.767 10.2784 13.3509C9.88636 13.9304 9.3196 14.3842 8.57812 14.7124C7.84091 15.0362 6.94815 15.1982 5.89986 15.1982C4.88139 15.1982 3.99716 15.0405 3.24716 14.7251C2.50142 14.4098 1.91761 13.9496 1.49574 13.3445C1.07813 12.7393 0.852273 12.0021 0.818182 11.1328H3.15128C3.18537 11.5888 3.32599 11.968 3.57315 12.2706C3.82031 12.5732 4.14205 12.799 4.53835 12.9482C4.93892 13.0973 5.38636 13.1719 5.88068 13.1719C6.39631 13.1719 6.84801 13.0952 7.2358 12.9418C7.62784 12.7841 7.93466 12.5668 8.15625 12.2898C8.37784 12.0085 8.49077 11.6804 8.49503 11.3054C8.49077 10.9645 8.39063 10.6832 8.1946 10.4616C7.99858 10.2358 7.72372 10.0483 7.37003 9.89915C7.0206 9.74574 6.61151 9.60937 6.14276 9.49006L4.65341 9.10653C3.57528 8.82955 2.72301 8.4098 2.09659 7.8473C1.47443 7.28054 1.16335 6.52841 1.16335 5.59091C1.16335 4.8196 1.37216 4.14418 1.78977 3.56463C2.21165 2.98509 2.7848 2.53551 3.50923 2.21591C4.23366 1.89204 5.05398 1.73011 5.97017 1.73011C6.89915 1.73011 7.71307 1.89204 8.41193 2.21591C9.11506 2.53551 9.6669 2.98082 10.0675 3.55185C10.468 4.11861 10.6747 4.7706 10.6875 5.50781H8.40554ZM18.1774 1.90909V15H15.8059V4.21662H15.7292L12.6674 6.17259V3.99929L15.921 1.90909H18.1774ZM26.0524 15.179C25.2001 15.179 24.4373 15.0192 23.764 14.6996C23.0907 14.3757 22.5559 13.9325 22.1596 13.37C21.7676 12.8075 21.5588 12.1641 21.5332 11.4396H23.8343C23.877 11.9766 24.1092 12.4155 24.5311 12.7564C24.9529 13.093 25.46 13.2614 26.0524 13.2614C26.5169 13.2614 26.9302 13.1548 27.2924 12.9418C27.6547 12.7287 27.9402 12.4325 28.149 12.0533C28.3578 11.674 28.46 11.2415 28.4558 10.7557C28.46 10.2614 28.3556 9.82244 28.1426 9.43892C27.9295 9.0554 27.6376 8.75497 27.2669 8.53764C26.8961 8.31605 26.47 8.20526 25.9885 8.20526C25.5964 8.20099 25.2108 8.27344 24.8315 8.42259C24.4522 8.57173 24.1518 8.76776 23.9302 9.01065L21.7889 8.65909L22.4728 1.90909H30.0666V3.89062H24.4352L24.0581 7.36151H24.1348C24.3777 7.07599 24.7207 6.83949 25.1639 6.65199C25.6071 6.46023 26.0929 6.36435 26.6213 6.36435C27.4139 6.36435 28.1213 6.55185 28.7434 6.92685C29.3656 7.29758 29.8556 7.80895 30.2136 8.46094C30.5716 9.11293 30.7505 9.85866 30.7505 10.6982C30.7505 11.5632 30.5502 12.3345 30.1497 13.0121C29.7534 13.6854 29.2015 14.2159 28.4941 14.6037C27.791 14.9872 26.9771 15.179 26.0524 15.179Z" fill="#EB7304"/>
</svg>
