<svg width="98" height="102" viewBox="0 0 98 102" fill="none" xmlns="http://www.w3.org/2000/svg">
<g filter="url(#filter0_d_302_402)">
<rect x="20" y="20" width="62" height="62" rx="8" fill="#FFF1E4"/>
<path d="M37.1761 53.1818V31.3636H38.5739V53.1818H37.1761ZM41.2074 38.3438C41.1278 37.5994 40.7926 37.0199 40.2017 36.6051C39.6165 36.1903 38.8551 35.983 37.9176 35.983C37.2585 35.983 36.6932 36.0824 36.2216 36.2812C35.75 36.4801 35.3892 36.75 35.1392 37.0909C34.8892 37.4318 34.7614 37.821 34.7557 38.2585C34.7557 38.6222 34.8381 38.9375 35.0028 39.2045C35.1733 39.4716 35.4034 39.6989 35.6932 39.8864C35.983 40.0682 36.304 40.2216 36.6562 40.3466C37.0085 40.4716 37.3636 40.5767 37.7216 40.6619L39.358 41.071C40.017 41.2244 40.6506 41.4318 41.2585 41.6932C41.8722 41.9545 42.4205 42.2841 42.9034 42.6818C43.392 43.0795 43.7784 43.5597 44.0625 44.1222C44.3466 44.6847 44.4886 45.3437 44.4886 46.0994C44.4886 47.1222 44.2273 48.0227 43.7045 48.8011C43.1818 49.5739 42.4261 50.179 41.4375 50.6165C40.4545 51.0483 39.2642 51.2642 37.8665 51.2642C36.5085 51.2642 35.3295 51.054 34.3295 50.6335C33.3352 50.2131 32.5568 49.5994 31.9943 48.7926C31.4375 47.9858 31.1364 47.0028 31.0909 45.8438H34.2017C34.2472 46.4517 34.4347 46.9574 34.7642 47.3608C35.0938 47.7642 35.5227 48.0653 36.0511 48.2642C36.5852 48.4631 37.1818 48.5625 37.8409 48.5625C38.5284 48.5625 39.1307 48.4602 39.6477 48.2557C40.1705 48.0455 40.5795 47.7557 40.875 47.3864C41.1705 47.0114 41.321 46.5739 41.3267 46.0739C41.321 45.6193 41.1875 45.2443 40.9261 44.9489C40.6648 44.6477 40.2983 44.3977 39.8267 44.1989C39.3608 43.9943 38.8153 43.8125 38.1903 43.6534L36.2045 43.142C34.767 42.7727 33.6307 42.2131 32.7955 41.4631C31.9659 40.7074 31.5511 39.7045 31.5511 38.4545C31.5511 37.4261 31.8295 36.5256 32.3864 35.7528C32.9489 34.9801 33.7131 34.3807 34.679 33.9545C35.6449 33.5227 36.7386 33.3068 37.9602 33.3068C39.1989 33.3068 40.2841 33.5227 41.2159 33.9545C42.1534 34.3807 42.8892 34.9744 43.4233 35.7358C43.9574 36.4915 44.233 37.3608 44.25 38.3438H41.2074ZM53.9965 33.5455V51H50.8346V36.6222H50.7323L46.6499 39.2301V36.3324L50.988 33.5455H53.9965ZM64.2565 51.2386C63.1201 51.2386 62.1031 51.0256 61.2054 50.5994C60.3076 50.1676 59.5946 49.5767 59.0662 48.8267C58.5434 48.0767 58.265 47.2187 58.2309 46.2528H61.2991C61.3559 46.9687 61.6656 47.554 62.2281 48.0085C62.7906 48.4574 63.4667 48.6818 64.2565 48.6818C64.8758 48.6818 65.427 48.5398 65.9099 48.2557C66.3929 47.9716 66.7736 47.5767 67.052 47.071C67.3304 46.5653 67.4667 45.9886 67.4611 45.3409C67.4667 44.6818 67.3275 44.0966 67.0434 43.5852C66.7593 43.0739 66.3701 42.6733 65.8758 42.3835C65.3815 42.0881 64.8133 41.9403 64.1713 41.9403C63.6486 41.9347 63.1343 42.0312 62.6287 42.2301C62.123 42.429 61.7224 42.6903 61.427 43.0142L58.5718 42.5455L59.4838 33.5455H69.6088V36.1875H62.1003L61.5974 40.8153H61.6997C62.0236 40.4347 62.4809 40.1193 63.0718 39.8693C63.6628 39.6136 64.3105 39.4858 65.015 39.4858C66.0718 39.4858 67.015 39.7358 67.8446 40.2358C68.6741 40.7301 69.3275 41.4119 69.8048 42.2812C70.2821 43.1506 70.5207 44.1449 70.5207 45.2642C70.5207 46.4176 70.2537 47.446 69.7196 48.3494C69.1912 49.2472 68.4554 49.9545 67.5122 50.4716C66.5747 50.983 65.4895 51.2386 64.2565 51.2386Z" fill="#EB7304"/>
<path d="M37.6804 61.8636L34.8679 72.3125H33.7301L36.5426 61.8636H37.6804ZM45.6691 62.2727V71H44.4589L40.0228 64.5994H39.9418V71H38.6251V62.2727H39.8438L44.2841 68.6818H44.3651V62.2727H45.6691ZM47.2476 71V64.4545H48.5218V71H47.2476ZM47.8911 63.4446C47.6695 63.4446 47.4792 63.3707 47.3201 63.223C47.1638 63.0724 47.0857 62.8935 47.0857 62.6861C47.0857 62.4759 47.1638 62.2969 47.3201 62.1491C47.4792 61.9986 47.6695 61.9233 47.8911 61.9233C48.1127 61.9233 48.3016 61.9986 48.4579 62.1491C48.6169 62.2969 48.6965 62.4759 48.6965 62.6861C48.6965 62.8935 48.6169 63.0724 48.4579 63.223C48.3016 63.3707 48.1127 63.4446 47.8911 63.4446ZM52.7402 73.5909C52.2203 73.5909 51.7729 73.5227 51.3979 73.3864C51.0257 73.25 50.7218 73.0696 50.486 72.8452C50.2502 72.6207 50.074 72.375 49.9576 72.108L51.0527 71.6562C51.1294 71.7812 51.2317 71.9134 51.3595 72.0526C51.4902 72.1946 51.6664 72.3153 51.888 72.4148C52.1124 72.5142 52.4007 72.5639 52.753 72.5639C53.236 72.5639 53.6351 72.446 53.9505 72.2102C54.2658 71.9773 54.4235 71.6051 54.4235 71.0938V69.8068H54.3425C54.2658 69.946 54.155 70.1009 54.0101 70.2713C53.8681 70.4418 53.672 70.5895 53.422 70.7145C53.172 70.8395 52.8468 70.902 52.4462 70.902C51.9291 70.902 51.4632 70.7812 51.0485 70.5398C50.6365 70.2955 50.3098 69.9361 50.0684 69.4616C49.8297 68.9844 49.7104 68.3977 49.7104 67.7017C49.7104 67.0057 49.8283 66.4091 50.0641 65.9119C50.3027 65.4148 50.6294 65.0341 51.0442 64.7699C51.459 64.5028 51.9291 64.3693 52.4547 64.3693C52.861 64.3693 53.1891 64.4375 53.4391 64.5739C53.6891 64.7074 53.8837 64.8636 54.0229 65.0426C54.1649 65.2216 54.2743 65.3793 54.351 65.5156H54.4448V64.4545H55.6934V71.1449C55.6934 71.7074 55.5627 72.169 55.3013 72.5298C55.0399 72.8906 54.6862 73.1577 54.2402 73.331C53.797 73.5043 53.297 73.5909 52.7402 73.5909ZM52.7274 69.8452C53.0939 69.8452 53.4036 69.7599 53.6564 69.5895C53.9121 69.4162 54.1053 69.169 54.236 68.848C54.3695 68.5241 54.4362 68.1364 54.4362 67.6847C54.4362 67.2443 54.3709 66.8565 54.2402 66.5213C54.1095 66.1861 53.9178 65.9247 53.6649 65.7372C53.4121 65.5469 53.0996 65.4517 52.7274 65.4517C52.3439 65.4517 52.0243 65.5511 51.7686 65.75C51.513 65.946 51.3198 66.2131 51.1891 66.5511C51.0612 66.8892 50.9973 67.267 50.9973 67.6847C50.9973 68.1136 51.0627 68.4901 51.1934 68.8139C51.324 69.1378 51.5172 69.3906 51.7729 69.5724C52.0314 69.7543 52.3496 69.8452 52.7274 69.8452ZM58.4363 67.1136V71H57.1622V62.2727H58.4193V65.5199H58.5002C58.6536 65.1676 58.888 64.8878 59.2034 64.6804C59.5187 64.473 59.9306 64.3693 60.4391 64.3693C60.888 64.3693 61.2801 64.4616 61.6153 64.6463C61.9534 64.831 62.2147 65.1065 62.3994 65.473C62.5869 65.8366 62.6806 66.2912 62.6806 66.8366V71H61.4065V66.9901C61.4065 66.5099 61.2829 66.1378 61.0357 65.8736C60.7886 65.6065 60.4448 65.473 60.0045 65.473C59.7034 65.473 59.4335 65.5369 59.1948 65.6648C58.959 65.7926 58.773 65.9801 58.6366 66.2273C58.5031 66.4716 58.4363 66.767 58.4363 67.1136ZM67.1963 64.4545V65.4773H63.621V64.4545H67.1963ZM64.5798 62.8864H65.854V69.0781C65.854 69.3253 65.8909 69.5114 65.9648 69.6364C66.0386 69.7585 66.1338 69.8423 66.2503 69.8878C66.3696 69.9304 66.4989 69.9517 66.6381 69.9517C66.7403 69.9517 66.8298 69.9446 66.9065 69.9304C66.9832 69.9162 67.0429 69.9048 67.0855 69.8963L67.3156 70.9489C67.2418 70.9773 67.1366 71.0057 67.0003 71.0341C66.8639 71.0653 66.6935 71.0824 66.4889 71.0852C66.1537 71.0909 65.8412 71.0312 65.5514 70.9062C65.2616 70.7812 65.0273 70.5881 64.8483 70.3267C64.6693 70.0653 64.5798 69.7372 64.5798 69.3423V62.8864Z" fill="#EB7304"/>
</g>
<defs>
<filter id="filter0_d_302_402" x="0" y="0" width="102" height="102" filterUnits="userSpaceOnUse" color-interpolation-filters="sRGB">
<feFlood flood-opacity="0" result="BackgroundImageFix"/>
<feColorMatrix in="SourceAlpha" type="matrix" values="0 0 0 0 0 0 0 0 0 0 0 0 0 0 0 0 0 0 127 0" result="hardAlpha"/>
<feOffset/>
<feGaussianBlur stdDeviation="10"/>
<feColorMatrix type="matrix" values="0 0 0 0 0.898039 0 0 0 0 0.898039 0 0 0 0 0.898039 0 0 0 0.2 0"/>
<feBlend mode="normal" in2="BackgroundImageFix" result="effect1_dropShadow_302_402"/>
<feBlend mode="normal" in="SourceGraphic" in2="effect1_dropShadow_302_402" result="shape"/>
</filter>
</defs>
</svg>
