<svg width="34" height="17" viewBox="0 0 34 17" fill="none" xmlns="http://www.w3.org/2000/svg">
<path d="M5.3821 16.6364V0.272726H6.4304V16.6364H5.3821ZM8.40554 5.50781C8.34588 4.94957 8.09446 4.51491 7.65128 4.20384C7.21236 3.89276 6.64134 3.73722 5.93821 3.73722C5.44389 3.73722 5.01989 3.81179 4.66619 3.96094C4.3125 4.11008 4.0419 4.3125 3.8544 4.56818C3.6669 4.82386 3.57102 5.11577 3.56676 5.44389C3.56676 5.71662 3.62855 5.95312 3.75213 6.15341C3.87997 6.35369 4.05256 6.52415 4.26989 6.66477C4.48722 6.80114 4.72798 6.91619 4.99219 7.00994C5.25639 7.10369 5.52273 7.18253 5.79119 7.24645L7.01847 7.55327C7.51278 7.66832 7.98793 7.82386 8.44389 8.01989C8.90412 8.21591 9.31534 8.46307 9.67756 8.76136C10.044 9.05966 10.3338 9.41974 10.5469 9.84162C10.7599 10.2635 10.8665 10.7578 10.8665 11.3246C10.8665 12.0916 10.6705 12.767 10.2784 13.3509C9.88636 13.9304 9.3196 14.3842 8.57812 14.7124C7.84091 15.0362 6.94815 15.1982 5.89986 15.1982C4.88139 15.1982 3.99716 15.0405 3.24716 14.7251C2.50142 14.4098 1.91761 13.9496 1.49574 13.3445C1.07813 12.7393 0.852273 12.0021 0.818182 11.1328H3.15128C3.18537 11.5888 3.32599 11.968 3.57315 12.2706C3.82031 12.5732 4.14205 12.799 4.53835 12.9482C4.93892 13.0973 5.38636 13.1719 5.88068 13.1719C6.39631 13.1719 6.84801 13.0952 7.2358 12.9418C7.62784 12.7841 7.93466 12.5668 8.15625 12.2898C8.37784 12.0085 8.49077 11.6804 8.49503 11.3054C8.49077 10.9645 8.39063 10.6832 8.1946 10.4616C7.99858 10.2358 7.72372 10.0483 7.37003 9.89915C7.0206 9.74574 6.61151 9.60937 6.14276 9.49006L4.65341 9.10653C3.57528 8.82955 2.72301 8.4098 2.09659 7.8473C1.47443 7.28054 1.16335 6.52841 1.16335 5.59091C1.16335 4.8196 1.37216 4.14418 1.78977 3.56463C2.21165 2.98509 2.7848 2.53551 3.50923 2.21591C4.23366 1.89204 5.05398 1.73011 5.97017 1.73011C6.89915 1.73011 7.71307 1.89204 8.41193 2.21591C9.11506 2.53551 9.6669 2.98082 10.0675 3.55185C10.468 4.11861 10.6747 4.7706 10.6875 5.50781H8.40554ZM12.8528 15V13.2869L17.3976 8.83168C17.8322 8.39276 18.1944 8.00284 18.4842 7.66193C18.774 7.32102 18.9913 6.99077 19.1362 6.67116C19.2811 6.35156 19.3535 6.01065 19.3535 5.64844C19.3535 5.23508 19.2598 4.88139 19.0723 4.58736C18.8848 4.28906 18.627 4.05895 18.2988 3.89702C17.9707 3.73508 17.5978 3.65412 17.1802 3.65412C16.7498 3.65412 16.3727 3.74361 16.0488 3.92259C15.725 4.0973 15.4735 4.34659 15.2946 4.67045C15.1199 4.99432 15.0325 5.37997 15.0325 5.82741H12.7761C12.7761 4.99645 12.9657 4.27415 13.345 3.66051C13.7243 3.04687 14.2463 2.57173 14.911 2.23509C15.5801 1.89844 16.3471 1.73011 17.2122 1.73011C18.09 1.73011 18.8613 1.89418 19.5261 2.2223C20.1909 2.55043 20.7065 3 21.073 3.57102C21.4437 4.14204 21.6291 4.79403 21.6291 5.52699C21.6291 6.01705 21.5353 6.49858 21.3478 6.97159C21.1603 7.4446 20.8301 7.96875 20.3571 8.54403C19.8883 9.11932 19.2299 9.81605 18.3819 10.6342L16.1255 12.929V13.0185H21.8272V15H12.8528ZM28.8713 15.2493C27.8187 15.2493 26.9153 14.983 26.161 14.4503C25.411 13.9134 24.8336 13.1399 24.4288 12.13C24.0282 11.1158 23.8279 9.89489 23.8279 8.46733C23.8322 7.03977 24.0346 5.82528 24.4352 4.82386C24.84 3.81818 25.4174 3.05114 26.1674 2.52273C26.9217 1.99432 27.823 1.73011 28.8713 1.73011C29.9196 1.73011 30.8208 1.99432 31.5751 2.52273C32.3294 3.05114 32.9068 3.81818 33.3074 4.82386C33.7122 5.82955 33.9146 7.04403 33.9146 8.46733C33.9146 9.89915 33.7122 11.1222 33.3074 12.1364C32.9068 13.1463 32.3294 13.9176 31.5751 14.4503C30.8251 14.983 29.9238 15.2493 28.8713 15.2493ZM28.8713 13.2486C29.6895 13.2486 30.335 12.8459 30.8081 12.0405C31.2853 11.2308 31.524 10.0398 31.524 8.46733C31.524 7.42756 31.4153 6.55398 31.198 5.84659C30.9806 5.1392 30.6738 4.60653 30.2775 4.24858C29.8812 3.88636 29.4125 3.70526 28.8713 3.70526C28.0574 3.70526 27.4139 4.11008 26.9409 4.91974C26.4679 5.72514 26.2292 6.90767 26.225 8.46733C26.2207 9.51136 26.3251 10.3892 26.5382 11.1009C26.7555 11.8125 27.0623 12.3494 27.4586 12.7116C27.8549 13.0696 28.3258 13.2486 28.8713 13.2486Z" fill="#EB7304"/>
</svg>
