<svg width="42" height="18" viewBox="0 0 42 18" fill="none" xmlns="http://www.w3.org/2000/svg">
<path d="M0.720881 12.6108V11.1442L5.04119 4.31818H6.2642V6.40625H5.51847L2.61009 11.0149V11.0945H8.64062V12.6108H0.720881ZM5.57812 14.5V12.1634L5.59801 11.5071V4.31818H7.33807V14.5H5.57812ZM10.8305 14.6094C10.5289 14.6094 10.2704 14.5033 10.0549 14.2912C9.83949 14.0791 9.73343 13.8205 9.73674 13.5156C9.73343 13.2173 9.83949 12.9621 10.0549 12.75C10.2704 12.5379 10.5289 12.4318 10.8305 12.4318C11.1222 12.4318 11.3757 12.5379 11.5911 12.75C11.8099 12.9621 11.9209 13.2173 11.9242 13.5156C11.9209 13.7178 11.8679 13.9018 11.7651 14.0675C11.6657 14.2332 11.5331 14.3658 11.3674 14.4652C11.205 14.5613 11.026 14.6094 10.8305 14.6094ZM16.9392 14.6392C16.2763 14.6392 15.6831 14.5149 15.1594 14.2663C14.6357 14.0144 14.2198 13.6697 13.9115 13.2322C13.6066 12.7947 13.4442 12.2943 13.4243 11.7308H15.2141C15.2472 12.1484 15.4278 12.4898 15.756 12.755C16.0841 13.0168 16.4785 13.1477 16.9392 13.1477C17.3005 13.1477 17.622 13.0649 17.9037 12.8991C18.1854 12.7334 18.4075 12.5031 18.5699 12.2081C18.7323 11.9131 18.8118 11.5767 18.8085 11.1989C18.8118 10.8144 18.7306 10.473 18.5649 10.1747C18.3992 9.87642 18.1722 9.64276 17.8838 9.47372C17.5955 9.30137 17.264 9.2152 16.8895 9.2152C16.5846 9.21188 16.2846 9.26823 15.9896 9.38423C15.6947 9.50024 15.461 9.6527 15.2886 9.84162L13.6232 9.56818L14.1551 4.31818H20.0614V5.85938H15.6814L15.3881 8.55895H15.4477C15.6367 8.33688 15.9035 8.15294 16.2482 8.0071C16.5929 7.85795 16.9707 7.78338 17.3817 7.78338C17.9982 7.78338 18.5484 7.92921 19.0323 8.22088C19.5162 8.50923 19.8973 8.90696 20.1757 9.41406C20.4541 9.92116 20.5933 10.5012 20.5933 11.1541C20.5933 11.8269 20.4376 12.4268 20.126 12.9538C19.8178 13.4775 19.3885 13.8902 18.8384 14.1918C18.2915 14.4901 17.6584 14.6392 16.9392 14.6392Z" fill="#5B59E2"/>
<g clip-path="url(#clip0_302_397)">
<path d="M33.9999 11.8333L30.0812 14.2266L31.1466 9.75996L27.6599 6.77329L32.2366 6.40663L33.9999 2.16663L35.7632 6.40663L40.3406 6.77329L36.8532 9.75996L37.9186 14.2266L33.9999 11.8333Z" fill="#5B59E2"/>
</g>
<defs>
<clipPath id="clip0_302_397">
<rect width="16" height="16" fill="white" transform="translate(26 0.5)"/>
</clipPath>
</defs>
</svg>
