<svg width="32" height="32" viewBox="0 0 32 32" fill="none" xmlns="http://www.w3.org/2000/svg">
<g clip-path="url(#clip0_1_224)">
<path d="M4.00008 4H28.0001C28.3537 4 28.6928 4.14048 28.9429 4.39052C29.1929 4.64057 29.3334 4.97971 29.3334 5.33333V26.6667C29.3334 27.0203 29.1929 27.3594 28.9429 27.6095C28.6928 27.8595 28.3537 28 28.0001 28H4.00008C3.64646 28 3.30732 27.8595 3.05727 27.6095C2.80722 27.3594 2.66675 27.0203 2.66675 26.6667V5.33333C2.66675 4.97971 2.80722 4.64057 3.05727 4.39052C3.30732 4.14048 3.64646 4 4.00008 4ZM26.6667 18.6667H22.1121C21.5933 19.8562 20.7387 20.8685 19.653 21.5794C18.5673 22.2903 17.2978 22.669 16.0001 22.669C14.7024 22.669 13.4328 22.2903 12.3472 21.5794C11.2615 20.8685 10.4069 19.8562 9.88808 18.6667H5.33341V25.3333H26.6667V18.6667ZM26.6667 16V6.66667H5.33341V16H12.0001C12.0001 17.0609 12.4215 18.0783 13.1717 18.8284C13.9218 19.5786 14.9392 20 16.0001 20C17.0609 20 18.0784 19.5786 18.8285 18.8284C19.5787 18.0783 20.0001 17.0609 20.0001 16H26.6667Z" fill="#BDBDBD"/>
</g>
<defs>
<clipPath id="clip0_1_224">
<rect width="32" height="32" fill="white"/>
</clipPath>
</defs>
</svg>
