<svg width="52" height="52" viewBox="0 0 52 52" fill="none" xmlns="http://www.w3.org/2000/svg">
<g filter="url(#filter0_d_302_288)">
<rect x="10" y="10" width="32" height="32" rx="6" fill="white"/>
<g clip-path="url(#clip0_302_288)">
<path d="M30.5233 29.4628L33.7355 32.6743L32.6743 33.7355L29.4628 30.5233C28.2678 31.4812 26.7815 32.0022 25.25 32C21.524 32 18.5 28.976 18.5 25.25C18.5 21.524 21.524 18.5 25.25 18.5C28.976 18.5 32 21.524 32 25.25C32.0022 26.7815 31.4812 28.2678 30.5233 29.4628ZM29.0188 28.9063C29.9706 27.9274 30.5022 26.6153 30.5 25.25C30.5 22.349 28.1503 20 25.25 20C22.349 20 20 22.349 20 25.25C20 28.1503 22.349 30.5 25.25 30.5C26.6153 30.5022 27.9274 29.9706 28.9063 29.0188L29.0188 28.9063Z" fill="#4F4F4F"/>
</g>
</g>
<defs>
<filter id="filter0_d_302_288" x="0" y="0" width="52" height="52" filterUnits="userSpaceOnUse" color-interpolation-filters="sRGB">
<feFlood flood-opacity="0" result="BackgroundImageFix"/>
<feColorMatrix in="SourceAlpha" type="matrix" values="0 0 0 0 0 0 0 0 0 0 0 0 0 0 0 0 0 0 127 0" result="hardAlpha"/>
<feOffset/>
<feGaussianBlur stdDeviation="5"/>
<feColorMatrix type="matrix" values="0 0 0 0 0.541176 0 0 0 0 0.415686 0 0 0 0 1 0 0 0 0.1 0"/>
<feBlend mode="normal" in2="BackgroundImageFix" result="effect1_dropShadow_302_288"/>
<feBlend mode="normal" in="SourceGraphic" in2="effect1_dropShadow_302_288" result="shape"/>
</filter>
<clipPath id="clip0_302_288">
<rect width="18" height="18" fill="white" transform="translate(17 17)"/>
</clipPath>
</defs>
</svg>
