<svg width="48" height="63" viewBox="0 0 48 63" fill="none" xmlns="http://www.w3.org/2000/svg">
<rect width="48" height="48" rx="6" fill="#EEEEFF"/>
<g clip-path="url(#clip0_302_412)">
<path d="M8.91992 17.3294C13.1854 13.8738 18.5104 11.9919 23.9999 12C29.7133 12 34.9599 13.996 39.0799 17.3294L37.4053 19.404C33.6135 16.3321 28.8798 14.6593 23.9999 14.6667C18.9213 14.6667 14.2586 16.44 10.5946 19.404L8.91992 17.3294ZM13.1079 22.516C16.1887 20.02 20.0349 18.6607 23.9999 18.6667C28.1253 18.6667 31.9146 20.108 34.8919 22.5147L33.2159 24.5894C30.609 22.4778 27.3547 21.328 23.9999 21.3334C20.5093 21.3334 17.3026 22.5534 14.7839 24.5894L13.1079 22.5147V22.516ZM17.2973 27.7027C19.193 26.1666 21.5599 25.3299 23.9999 25.3334C26.5386 25.3334 28.8706 26.22 30.7026 27.7014L29.0266 29.776C27.6047 28.6243 25.8297 27.9972 23.9999 28C22.0959 28 20.3466 28.6654 18.9733 29.776L17.2973 27.7014V27.7027ZM21.4866 32.8894C22.1973 32.313 23.0849 31.9989 23.9999 32C24.9519 32 25.8266 32.3334 26.5133 32.888L23.9999 36L21.4866 32.888V32.8894Z" fill="#5B59E2"/>
</g>
<path d="M17.6408 61L15.6522 53.7273H16.5471L18.0669 59.6506H18.138L19.6863 53.7273H20.6806L22.2289 59.6506H22.2999L23.8198 53.7273H24.7147L22.726 61H21.8169L20.2118 55.2045H20.155L18.5499 61H17.6408ZM25.4583 61V55.5455H26.2964V61H25.4583ZM25.8845 54.6364C25.7211 54.6364 25.5803 54.5807 25.4619 54.4695C25.3459 54.3582 25.2879 54.2244 25.2879 54.0682C25.2879 53.9119 25.3459 53.7782 25.4619 53.6669C25.5803 53.5556 25.7211 53.5 25.8845 53.5C26.0478 53.5 26.1875 53.5556 26.3035 53.6669C26.4219 53.7782 26.4811 53.9119 26.4811 54.0682C26.4811 54.2244 26.4219 54.3582 26.3035 54.4695C26.1875 54.5807 26.0478 54.6364 25.8845 54.6364ZM30.0204 55.5455V56.2557H27.08V55.5455H30.0204ZM27.9607 61V54.7926C27.9607 54.4801 28.0341 54.2197 28.1809 54.0114C28.3277 53.803 28.5182 53.6468 28.7526 53.5426C28.987 53.4384 29.2344 53.3864 29.4948 53.3864C29.7008 53.3864 29.8688 53.4029 29.9991 53.4361C30.1293 53.4692 30.2263 53.5 30.2902 53.5284L30.0488 54.2528C30.0062 54.2386 29.947 54.2209 29.8712 54.1996C29.7978 54.1783 29.7008 54.1676 29.58 54.1676C29.303 54.1676 29.103 54.2375 28.9799 54.3771C28.8591 54.5168 28.7988 54.7216 28.7988 54.9915V61H27.9607ZM30.9549 61V55.5455H31.793V61H30.9549ZM31.381 54.6364C31.2177 54.6364 31.0768 54.5807 30.9584 54.4695C30.8424 54.3582 30.7844 54.2244 30.7844 54.0682C30.7844 53.9119 30.8424 53.7782 30.9584 53.6669C31.0768 53.5556 31.2177 53.5 31.381 53.5C31.5444 53.5 31.6841 53.5556 31.8001 53.6669C31.9184 53.7782 31.9776 53.9119 31.9776 54.0682C31.9776 54.2244 31.9184 54.3582 31.8001 54.4695C31.6841 54.5807 31.5444 54.6364 31.381 54.6364Z" fill="#4F4F4F"/>
<defs>
<clipPath id="clip0_302_412">
<rect width="32" height="32" fill="white" transform="translate(8 8)"/>
</clipPath>
</defs>
</svg>
